<svg width="41" height="40" viewBox="0 0 41 40" fill="none" xmlns="http://www.w3.org/2000/svg">
<path d="M24.498 26.7275C23.8296 26.7275 23.2881 27.3155 23.2881 28.0402C23.2881 28.7649 23.8296 29.3529 24.498 29.3529C25.1655 29.3529 25.707 28.765 25.707 28.0402C25.707 27.3155 25.1655 26.7275 24.498 26.7275Z" fill="#0274BA"/>
<path d="M28.5517 26.7275C27.8833 26.7275 27.3418 27.3155 27.3418 28.0402C27.3418 28.7649 27.8834 29.3529 28.5517 29.3529C29.2192 29.3529 29.7607 28.765 29.7607 28.0402C29.7607 27.3155 29.2192 26.7275 28.5517 26.7275Z" fill="#0274BA"/>
<path d="M32.5438 22.8722L28.1361 18.9435C27.3187 18.216 26.2939 17.8174 25.2356 17.8174H23.8201L22.5914 19.3003C22.1527 19.8287 21.5254 20.132 20.8699 20.132C20.2144 20.132 19.5872 19.8287 19.1485 19.3003L17.9197 17.8174H16.5034C15.446 17.8174 14.4212 18.216 13.6037 18.9435L9.19607 22.8722C8.25168 23.6136 7.63477 24.817 7.63477 26.1799V29.6816C7.63562 31.9381 9.31853 33.7657 11.3964 33.7662H20.8699H30.3425C32.4204 33.7657 34.105 31.9381 34.105 29.6816V26.1799C34.105 24.817 33.4881 23.6136 32.5438 22.8722ZM31.9551 29.6816C31.9551 30.1687 31.776 30.5989 31.483 30.9194C31.1883 31.2376 30.7915 31.4316 30.3425 31.432H11.3964C10.9483 31.4316 10.5515 31.2376 10.2568 30.9194C9.96286 30.5989 9.78467 30.1687 9.78467 29.6816V26.1799C9.78467 25.6929 9.96286 25.2622 10.2568 24.9427C10.5515 24.624 10.9483 24.4301 11.3964 24.4296H30.3425C30.7915 24.4301 31.1882 24.624 31.483 24.9427C31.7761 25.2622 31.9551 25.693 31.9551 26.1799V29.6816Z" fill="#0274BA"/>
<path d="M20.1272 18.3443C20.3165 18.5727 20.5873 18.703 20.87 18.703C21.1537 18.703 21.4236 18.5727 21.613 18.3443L25.4132 13.7593C25.678 13.4411 25.7439 12.9834 25.5837 12.5918C25.4235 12.2006 25.0653 11.9485 24.6711 11.9485H22.8854V5.31861C22.8854 4.71953 22.4372 4.2334 21.8854 4.2334H19.8547C19.3028 4.2334 18.8556 4.71953 18.8556 5.31861V11.9485H17.0698C16.6757 11.9485 16.3176 12.2006 16.1565 12.5918C15.9962 12.9834 16.0631 13.4411 16.327 13.7593L20.1272 18.3443Z" fill="#0274BA"/>
</svg>
